<svg width="120" height="56" viewBox="0 0 120 56" fill="none" xmlns="http://www.w3.org/2000/svg">
<path d="M22.2961 41.216C20.2801 41.216 18.6961 40.64 17.5441 39.488C16.4161 38.336 15.8521 36.5 15.8521 33.98C15.8521 31.844 16.2361 29.444 17.0041 26.78C17.7721 24.116 18.8881 21.836 20.3521 19.94C21.8401 18.044 23.5921 17.096 25.6081 17.096C26.3281 17.096 26.9521 17.192 27.4801 17.384C26.4241 18.008 25.4041 19.292 24.4201 21.236C23.4601 23.18 22.6801 25.352 22.0801 27.752C21.4801 30.152 21.1801 32.276 21.1801 34.124C21.1801 35.42 21.3481 36.44 21.6841 37.184C22.0201 37.928 22.5481 38.3 23.2681 38.3C24.4441 38.3 25.6081 37.46 26.7601 35.78C27.9361 34.076 28.8961 31.94 29.6401 29.372C30.4081 26.804 30.7921 24.332 30.7921 21.956C30.7921 20.468 30.6601 19.28 30.3961 18.392C30.1561 17.48 29.7001 16.796 29.0281 16.34C28.3561 15.884 27.4081 15.656 26.1841 15.656C24.3361 15.656 22.6201 16.04 21.0361 16.808C19.4521 17.552 18.1801 18.632 17.2201 20.048C16.2841 21.44 15.8161 23.06 15.8161 24.908C15.8161 25.556 15.8761 26.036 15.9961 26.348C16.1161 26.636 16.1761 26.804 16.1761 26.852C14.9761 26.852 14.0641 26.612 13.4401 26.132C12.8401 25.652 12.5401 24.884 12.5401 23.828C12.5401 22.172 13.2121 20.588 14.5561 19.076C15.9241 17.564 17.7241 16.34 19.9561 15.404C22.2121 14.468 24.5761 14 27.0481 14C30.0481 14 32.2201 14.816 33.5641 16.448C34.9081 18.08 35.5801 20.336 35.5801 23.216C35.5801 25.784 35.1001 28.46 34.1401 31.244C33.1801 34.028 31.6921 36.392 29.6761 38.336C27.6841 40.256 25.2241 41.216 22.2961 41.216ZM44.7255 41.648C43.2135 41.648 41.8815 41.384 40.7295 40.856C39.5775 40.328 38.6895 39.596 38.0655 38.66C37.4415 37.7 37.1295 36.596 37.1295 35.348C37.1295 34.292 37.3455 33.332 37.7775 32.468C38.2335 31.604 38.8335 30.92 39.5775 30.416C40.3455 29.912 41.1855 29.66 42.0975 29.66C42.9375 29.66 43.6455 29.876 44.2215 30.308C44.7975 30.716 45.1575 31.292 45.3015 32.036C44.0535 32.036 43.0575 32.372 42.3135 33.044C41.5695 33.692 41.1975 34.58 41.1975 35.708C41.1975 36.74 41.5095 37.568 42.1335 38.192C42.7575 38.816 43.5855 39.128 44.6175 39.128C45.8895 39.128 46.9335 38.708 47.7495 37.868C48.5895 37.004 49.0095 35.924 49.0095 34.628C49.0095 33.5 48.6975 32.432 48.0735 31.424C47.4495 30.416 46.5135 29.192 45.2655 27.752C43.9695 26.264 42.9855 24.992 42.3135 23.936C41.6655 22.856 41.3415 21.68 41.3415 20.408C41.3415 19.16 41.6895 18.044 42.3855 17.06C43.0815 16.052 44.0415 15.26 45.2655 14.684C46.4895 14.108 47.8695 13.82 49.4055 13.82C51.3495 13.82 52.8975 14.276 54.0495 15.188C55.2255 16.1 55.8135 17.324 55.8135 18.86C55.8135 19.868 55.5615 20.684 55.0575 21.308C54.5535 21.932 53.8935 22.244 53.0775 22.244C52.1655 22.244 51.4335 21.872 50.8815 21.128C51.3375 20.792 51.6975 20.348 51.9615 19.796C52.2255 19.244 52.3575 18.668 52.3575 18.068C52.3575 17.3 52.1295 16.688 51.6735 16.232C51.2175 15.776 50.5935 15.548 49.8015 15.548C48.8415 15.548 48.0495 15.896 47.4255 16.592C46.8255 17.264 46.5255 18.128 46.5255 19.184C46.5255 20.144 46.8015 21.044 47.3535 21.884C47.9055 22.7 48.7695 23.756 49.9455 25.052C50.9055 26.084 51.6735 26.972 52.2495 27.716C52.8495 28.46 53.3535 29.324 53.7615 30.308C54.1935 31.268 54.4095 32.312 54.4095 33.44C54.4095 34.976 53.9775 36.368 53.1135 37.616C52.2735 38.864 51.1095 39.848 49.6215 40.568C48.1575 41.288 46.5255 41.648 44.7255 41.648ZM60.0008 41.216C58.8488 41.216 57.9128 40.856 57.1928 40.136C56.4968 39.416 56.1488 38.336 56.1488 36.896C56.1488 36.296 56.2448 35.516 56.4368 34.556L58.5968 24.44H57.4088L57.6968 23H58.8848L59.9648 18.032L65.2928 17.312L64.0688 23H66.2288L65.9408 24.44H63.7808L61.4768 35.24C61.3808 35.6 61.3328 35.984 61.3328 36.392C61.3328 36.872 61.4408 37.22 61.6568 37.436C61.8968 37.628 62.2808 37.724 62.8088 37.724C63.5048 37.724 64.1528 37.436 64.7528 36.86C65.3528 36.26 65.7848 35.492 66.0488 34.556H67.5608C66.6728 37.148 65.5328 38.912 64.1408 39.848C62.7488 40.76 61.3688 41.216 60.0008 41.216ZM71.2904 41.144C69.5144 41.144 68.1104 40.688 67.0784 39.776C66.0464 38.864 65.5304 37.424 65.5304 35.456C65.5304 33.824 65.8664 32.012 66.5384 30.02C67.2104 28.028 68.2904 26.312 69.7784 24.872C71.2664 23.408 73.1384 22.676 75.3944 22.676C78.4664 22.676 80.0024 24.596 80.0024 28.436V28.472C80.0744 28.496 80.2064 28.508 80.3984 28.508C81.1904 28.508 82.1024 28.304 83.1344 27.896C84.1664 27.464 85.1024 26.948 85.9424 26.348L86.2664 27.32C85.5704 28.064 84.6584 28.7 83.5304 29.228C82.4264 29.732 81.2144 30.092 79.8944 30.308C79.7024 32.492 79.2104 34.4 78.4184 36.032C77.6264 37.664 76.6064 38.924 75.3584 39.812C74.1104 40.7 72.7544 41.144 71.2904 41.144ZM72.7304 37.904C73.3064 37.904 73.8824 37.58 74.4584 36.932C75.0344 36.26 75.5384 35.36 75.9704 34.232C76.4024 33.08 76.7144 31.808 76.9064 30.416C76.2584 30.272 75.9344 29.768 75.9344 28.904C75.9344 27.92 76.3064 27.272 77.0504 26.96C77.0024 26.168 76.8824 25.628 76.6904 25.34C76.4984 25.028 76.1624 24.872 75.6824 24.872C74.8904 24.872 74.1224 25.448 73.3784 26.6C72.6344 27.752 72.0344 29.132 71.5784 30.74C71.1224 32.348 70.8944 33.764 70.8944 34.988C70.8944 36.14 71.0264 36.92 71.2904 37.328C71.5544 37.712 72.0344 37.904 72.7304 37.904ZM84.3028 23H89.4868L89.0188 25.232C89.8348 24.512 90.5668 23.96 91.2148 23.576C91.8868 23.192 92.6068 23 93.3748 23C94.1428 23 94.7428 23.264 95.1748 23.792C95.6308 24.32 95.8588 24.956 95.8588 25.7C95.8588 26.396 95.6308 27.008 95.1748 27.536C94.7188 28.064 94.0828 28.328 93.2668 28.328C92.7388 28.328 92.3788 28.208 92.1868 27.968C92.0188 27.704 91.8868 27.332 91.7908 26.852C91.7188 26.54 91.6468 26.312 91.5748 26.168C91.5028 26.024 91.3708 25.952 91.1788 25.952C90.6748 25.952 90.2428 26.06 89.8828 26.276C89.5468 26.468 89.1028 26.816 88.5508 27.32L85.6708 41H80.4868L84.3028 23ZM100.466 41.216C98.7139 41.216 97.3459 40.76 96.3619 39.848C95.3779 38.912 94.8859 37.46 94.8859 35.492C94.8859 33.836 95.2099 32.012 95.8579 30.02C96.5059 28.028 97.5619 26.312 99.0259 24.872C100.49 23.408 102.35 22.676 104.606 22.676C107.246 22.676 108.566 23.828 108.566 26.132C108.566 27.476 108.182 28.712 107.414 29.84C106.646 30.968 105.626 31.88 104.354 32.576C103.082 33.248 101.726 33.632 100.286 33.728C100.238 34.256 100.214 34.616 100.214 34.808C100.214 36.8 100.958 37.796 102.446 37.796C103.118 37.796 103.838 37.616 104.606 37.256C105.374 36.896 106.07 36.44 106.694 35.888C106.046 39.44 103.97 41.216 100.466 41.216ZM100.538 32C101.45 31.976 102.302 31.676 103.094 31.1C103.91 30.524 104.558 29.792 105.038 28.904C105.542 27.992 105.794 27.044 105.794 26.06C105.794 25.076 105.494 24.584 104.894 24.584C104.054 24.584 103.214 25.352 102.374 26.888C101.558 28.4 100.946 30.104 100.538 32Z" fill="#2C3968"/>
</svg>
